<svg  viewBox="0 0 65 64" height="64" width="65" xmlns="http://www.w3.org/2000/svg" xmlns:xlink="http://www.w3.org/1999/xlink">
<linearGradient id="SVGID_1_" gradientUnits="userSpaceOnUse" x1="5.5843" y1="47.742" x2="56.903" y2="18.1132">
	<stop  offset="0" style="stop-color:#2EF7C4"/>
	<stop  offset="1" style="stop-color:#1869D4"/>
</linearGradient>
<path fill="url(#SVGID_1_)" d="M51.5,51h-8.1c-1.5,0-2.7-1.2-2.7-2.7c0-1.5,1.2-2.7,2.7-2.7h8.1c4.5-0.1,8.1-3.8,8-8.3
	c-0.1-3.7-2.6-6.9-6.2-7.8c-1.3-0.3-2.2-1.6-2.1-3c1.5-8.9-4.5-17.2-13.3-18.7c-0.9-0.2-1.8-0.2-2.7-0.2c-7.2,0-13.5,4.7-15.6,11.6
	c-0.3,1.1-1.3,1.9-2.5,1.9c-6.7,0.1-12.1,5.7-12,12.4c0.1,6.7,5.7,12.1,12.4,12h4.1c1.5,0,2.7,1.2,2.7,2.7S23.1,51,21.7,51h-4.1
	C7.9,50.9,0,43,0,33.3c0-8.7,6.4-16.1,15-17.4C19.4,4.8,32-0.7,43.2,3.7C51.4,7,56.9,15,56.9,23.9V25c6.9,3,10,11,7,17.8
	C61.7,47.8,56.8,51,51.5,51z M35.2,59.1V29.3c0-1.5-1.2-2.7-2.7-2.7c-0.6,0-1.2,0.2-1.6,0.5L20,35.2c-1.2,0.9-1.4,2.6-0.5,3.8
	c0.9,1.2,2.6,1.4,3.8,0.5l6.5-4.9v24.4c0,1.5,1.2,2.7,2.7,2.7S35.2,60.6,35.2,59.1L35.2,59.1L35.2,59.1z M45.5,39
	c0.9-1.2,0.7-2.9-0.5-3.8l-2.7-2c-1-1.1-2.7-1.3-3.8-0.3c-1.1,1-1.3,2.7-0.3,3.8c0.2,0.3,0.5,0.5,0.9,0.7l2.7,2
	c1.2,0.9,2.9,0.7,3.8-0.5L45.5,39z"/>
</svg>
