<svg xmlns="http://www.w3.org/2000/svg" xmlns:xlink="http://www.w3.org/1999/xlink">
<symbol id="logo" viewBox="66 0 340 64">
<g
   fill="currentColor"
   aria-label="Miku Send"
   transform="matrix(3.3722051,0,0,3.3722051,68.112108,-185.9955)">
   <path
      d="m 13.020019,69.367371 v -5.507813 q 0,-0.761719 0.07617,-1.916016 h -0.04687 q -0.175782,0.873047 -0.28125,1.166016 l -2.238282,6.257813 H 8.9887688 L 6.7211907,63.168152 q -0.082031,-0.222656 -0.2871094,-1.22461 h -0.052734 q 0.076172,1.142579 0.076172,2.291016 v 5.132813 H 4.7114251 v -9.076172 h 2.8125 l 1.9570312,5.484375 q 0.2460938,0.679687 0.3339844,1.277343 h 0.041016 q 0.1816403,-0.74414 0.3749993,-1.289062 l 1.962891,-5.472656 h 2.736328 v 9.076172 z"/>
   <path
      d="m 18.429688,57.972656 c -0.320313,0 -0.583985,0.0918 -0.791016,0.275391 -0.203125,0.179687 -0.304688,0.414062 -0.304688,0.703125 0,0.28125 0.103516,0.517578 0.310547,0.708984 0.207031,0.191407 0.46875,0.28711 0.785157,0.28711 0.320312,0 0.583984,-0.09375 0.791015,-0.28125 0.207031,-0.191407 0.310547,-0.429688 0.310547,-0.714844 0,-0.28125 -0.101563,-0.513672 -0.304688,-0.697266 -0.203125,-0.1875 -0.46875,-0.28125 -0.796874,-0.28125 z m -0.955079,3.070313 v 3.423828 h 1.210938 v 0.810547 h -1.210938 v 0.300781 h 1.210938 v 0.810547 h -1.210938 v 1.134766 h 1.886719 v -6.480469 z"
      transform="translate(-0.62784176,1.8442852)"/>
   <path
      d="m 26.807128,69.367371 h -2.296875 l -2.15625,-3.205079 h -0.02344 v 3.205079 h -1.892578 v -9.591797 h 1.892578 v 6.105468 h 0.02344 l 2.021485,-2.99414 h 2.255859 l -2.402344,3.058594 z"/>
   <path
      d="m 33.645019,69.367371 h -1.88086 v -0.990235 h -0.0293 q -0.726563,1.148438 -1.986329,1.148438 -2.261718,0 -2.261718,-2.730469 v -3.908203 h 1.892578 v 3.732422 q 0,1.453125 1.136719,1.453125 0.568359,0 0.908203,-0.398438 0.339843,-0.398437 0.339843,-1.078125 v -3.708984 h 1.88086 z"/>
   <path
      d="m 39.814941,63.601746 q 0,0.345703 0.140625,0.574218 0.140625,0.222657 0.375,0.369141 0.240234,0.146484 0.550781,0.240234 0.316406,0.09375 0.65625,0.175782 0.457031,0.111328 0.896484,0.246093 0.445313,0.134766 0.791016,0.375 0.345703,0.234375 0.556641,0.615235 0.216796,0.380859 0.216796,0.978515 0,0.609375 -0.228515,1.054688 -0.222656,0.439453 -0.626953,0.726562 -0.398438,0.28125 -0.955078,0.416016 -0.556641,0.140625 -1.21875,0.140625 -0.304688,0 -0.626954,-0.04102 -0.316406,-0.03516 -0.609375,-0.09961 -0.287109,-0.06445 -0.521484,-0.146484 -0.234375,-0.08203 -0.369141,-0.164063 v -0.873047 q 0.210938,0.105469 0.47461,0.19336 0.263672,0.08789 0.544922,0.152343 0.28125,0.05859 0.568359,0.09375 0.287109,0.03516 0.539063,0.03516 0.410156,0 0.779296,-0.07031 0.375,-0.07031 0.65625,-0.234375 0.28125,-0.164062 0.445313,-0.445312 0.164062,-0.28711 0.164062,-0.714844 0,-0.351563 -0.146484,-0.580078 -0.140625,-0.228516 -0.380859,-0.375 -0.240235,-0.152344 -0.556641,-0.246094 -0.310547,-0.09375 -0.65625,-0.175781 -0.457031,-0.105469 -0.896484,-0.234375 -0.433594,-0.134766 -0.779297,-0.369141 -0.339844,-0.234375 -0.550781,-0.603516 -0.205079,-0.36914 -0.205079,-0.943359 0,-0.597656 0.210938,-1.025391 0.210937,-0.433593 0.574219,-0.714843 0.363281,-0.28125 0.849609,-0.416016 0.486328,-0.134766 1.037109,-0.134766 0.626954,0 1.166016,0.123047 0.544922,0.117188 0.996094,0.310547 v 0.884766 q -0.486328,-0.205078 -1.007813,-0.333985 -0.515625,-0.128906 -1.107422,-0.134765 -0.445312,0 -0.773437,0.09961 -0.328125,0.09375 -0.544922,0.275391 -0.216797,0.175781 -0.322266,0.433594 -0.105468,0.251953 -0.105468,0.5625 z"/>
   <path
      d="m 47.783691,64.433777 q -0.310547,0 -0.580078,0.123047 -0.263672,0.123047 -0.462891,0.333984 -0.199219,0.210938 -0.322266,0.498047 -0.123047,0.28125 -0.152343,0.603516 h 2.8125 q 0,-0.328125 -0.08789,-0.609375 -0.08203,-0.28711 -0.246094,-0.498047 -0.164062,-0.210938 -0.404297,-0.328125 -0.240234,-0.123047 -0.556641,-0.123047 z m 0.498047,4.289062 q 0.451171,0 0.820312,-0.07031 0.375,-0.07617 0.744141,-0.210938 v 0.75586 q -0.298828,0.146484 -0.738282,0.228515 -0.439453,0.08789 -0.943359,0.08789 -0.597656,0 -1.125,-0.152344 -0.521484,-0.152344 -0.914062,-0.492187 -0.392579,-0.339844 -0.621094,-0.884766 -0.222656,-0.550781 -0.222656,-1.324219 0,-0.761718 0.210937,-1.318359 0.210938,-0.5625 0.5625,-0.9375 0.351563,-0.375 0.808594,-0.5625 0.457031,-0.1875 0.955078,-0.1875 0.46875,0 0.873047,0.158203 0.410156,0.152344 0.708984,0.486328 0.298828,0.333985 0.46875,0.861328 0.175781,0.527344 0.175781,1.265625 0,0.07031 0,0.123047 0,0.04687 -0.0059,0.222656 h -3.820312 q 0,0.533204 0.158203,0.908204 0.164062,0.36914 0.439453,0.603515 0.28125,0.228516 0.65625,0.333985 0.375,0.105468 0.808594,0.105468 z"/>
   <path
      d="m 52.459472,64.574402 h 0.01758 q 0.152344,-0.19336 0.333984,-0.357422 0.1875,-0.169922 0.416016,-0.292969 0.228516,-0.128906 0.498047,-0.199219 0.275391,-0.07031 0.597656,-0.07031 0.38086,0 0.714844,0.105469 0.333984,0.105468 0.580078,0.339843 0.246094,0.234375 0.386719,0.615235 0.146484,0.375 0.146484,0.925781 v 3.726563 h -0.908203 v -3.580079 q 0,-0.720703 -0.28125,-1.037109 -0.275391,-0.316406 -0.808594,-0.316406 -0.46875,0 -0.908203,0.263672 -0.439453,0.257812 -0.755859,0.714843 v 3.955079 h -0.908203 v -5.566407 h 0.703125 z"/>
   <path
      d="m 58.535644,66.642761 q 0,0.480469 0.105469,0.873047 0.111328,0.386719 0.316406,0.662109 0.205078,0.269532 0.503906,0.416016 0.298828,0.146484 0.685547,0.146484 0.287109,0 0.521484,-0.07617 0.234375,-0.07617 0.416016,-0.19336 0.1875,-0.117187 0.316406,-0.246094 0.134766,-0.134765 0.210938,-0.246093 v -2.91211 q -0.28125,-0.287109 -0.650391,-0.457031 -0.369141,-0.175781 -0.796875,-0.175781 -0.257812,0 -0.544922,0.09961 -0.28125,0.09375 -0.527344,0.345703 -0.240234,0.251953 -0.398437,0.679688 -0.158203,0.421875 -0.158203,1.083984 z m -0.949219,0.01172 q 0,-0.580078 0.111328,-1.025391 0.117188,-0.451172 0.304688,-0.785156 0.1875,-0.333984 0.439453,-0.556641 0.251953,-0.228515 0.521484,-0.36914 0.269531,-0.140625 0.544922,-0.199219 0.28125,-0.06445 0.527344,-0.06445 0.509765,0 0.884765,0.169922 0.375,0.169922 0.673829,0.498047 h 0.01758 V 60.883 h 0.908203 v 8.484375 h -0.685547 l -0.1875,-0.621094 h -0.02344 q -0.105468,0.134765 -0.246093,0.27539 -0.140625,0.134766 -0.333985,0.246094 -0.1875,0.111328 -0.439453,0.175781 -0.246094,0.07031 -0.574219,0.07031 -0.457031,0 -0.896484,-0.152344 -0.439453,-0.158204 -0.785156,-0.498048 -0.339844,-0.345703 -0.550781,-0.884765 -0.210938,-0.544922 -0.210938,-1.324218 z"/>
</g>
</symbol>
<use xlink:href="#logo"/>
</svg>